<?xml version="1.0" encoding="UTF-8"?>
<svg xmlns="http://www.w3.org/2000/svg" width="526" height="128" viewBox="214 536 526 128" role="img" aria-labelledby="title">
<title id="title">Landgut Seebühne</title>
<g fill="#F9F3E9">
<path d="M 270.523438 595.574219 C 251.953125 589.5 234.945312 581.6875 234.945312 566.066406 C 234.945312 552.183594 248.308594 539.167969 270.351562 539.339844 C 295.863281 539.515625 318.945312 555.132812 295.863281 581.863281 L 296.558594 582.382812 L 313.914062 567.28125 C 315.996094 549.058594 293.433594 538.472656 270.351562 538.300781 C 238.933594 538.125 226.265625 553.398438 226.265625 566.066406 C 226.265625 582.902344 248.65625 589.84375 270.003906 596.789062 C 288.921875 603.039062 306.96875 610.152344 306.96875 629.589844 C 306.96875 645.730469 294.472656 660.832031 270.351562 660.832031 C 244.488281 660.832031 218.976562 645.730469 242.925781 617.960938 L 242.234375 617.441406 L 224.878906 632.542969 C 222.792969 651.804688 246.574219 661.527344 270.351562 661.703125 C 300.027344 661.875 315.648438 645.210938 315.648438 629.589844 C 315.648438 610.5 292.21875 602.6875 270.523438 595.574219 "/>
<path d="M 371.488281 659.964844 L 336.082031 659.964844 L 336.082031 641.914062 L 374.613281 603.382812 C 392.664062 585.332031 420.257812 598.523438 420.257812 623.863281 C 420.257812 639.136719 407.066406 659.964844 371.488281 659.964844 M 336.082031 593.488281 C 336.082031 562.421875 354.480469 545.9375 372.355469 542.117188 C 404.8125 535.175781 421.125 555.480469 396.308594 580.300781 L 336.082031 640.871094 Z M 380.167969 597.828125 L 416.613281 561.730469 C 415.917969 544.371094 404.117188 534.480469 372.007812 541.25 C 346.667969 546.628906 327.40625 567.628906 327.40625 593.488281 L 327.40625 652.847656 C 327.40625 658.226562 322.199219 659.964844 316.816406 659.964844 L 316.816406 660.832031 L 371.488281 660.832031 C 404.636719 660.832031 428.9375 647.292969 428.9375 623.863281 C 428.9375 591.578125 396.308594 585.507812 380.167969 597.828125 "/>
<path d="M 479.941406 586.128906 L 463.191406 586.128906 L 463.191406 558.753906 L 459.710938 558.753906 L 459.710938 589.433594 L 479.941406 589.433594 Z M 479.941406 586.128906 "/>
<path d="M 496.296875 579.164062 L 503.445312 563.042969 L 510.546875 579.164062 Z M 501.523438 558.753906 L 487.992188 589.433594 L 491.789062 589.433594 L 494.871094 582.46875 L 511.972656 582.46875 L 515.054688 589.433594 L 518.851562 589.433594 L 505.320312 558.753906 Z M 501.523438 558.753906 "/>
<path d="M 552.089844 583.71875 L 533.066406 558.753906 L 529.582031 558.753906 L 529.582031 589.433594 L 533.066406 589.433594 L 533.066406 564.472656 L 552.089844 589.433594 L 555.574219 589.433594 L 555.574219 558.753906 L 552.089844 558.753906 Z M 552.089844 583.71875 "/>
<path d="M 579.433594 586.265625 L 572.558594 586.265625 L 572.558594 561.925781 L 579.433594 561.925781 C 587.113281 561.925781 592.519531 566.972656 592.519531 574.074219 C 592.519531 581.21875 587.113281 586.265625 579.433594 586.265625 M 579.433594 558.753906 L 569.074219 558.753906 L 569.074219 589.433594 L 579.433594 589.433594 C 589.167969 589.433594 596.046875 583.050781 596.046875 574.074219 C 596.046875 565.09375 589.167969 558.753906 579.433594 558.753906 "/>
<path d="M 622.050781 561.433594 C 625.398438 561.433594 629.375 562.953125 631.605469 565.320312 L 633.976562 562.910156 C 631.117188 560.003906 626.292969 558.21875 622.050781 558.21875 C 613.566406 558.21875 606.332031 565.453125 606.332031 574.074219 C 606.332031 582.691406 613.566406 589.96875 622.050781 589.96875 C 626.292969 589.96875 631.117188 588.140625 633.976562 585.28125 L 633.976562 573.269531 L 621.695312 573.269531 L 621.695312 576.574219 L 630.492188 576.574219 L 630.492188 583.898438 C 628.214844 585.640625 624.910156 586.757812 622.050781 586.757812 C 615.441406 586.757812 609.859375 580.949219 609.859375 574.074219 C 609.859375 567.238281 615.441406 561.433594 622.050781 561.433594 "/>
<path d="M 668.375 576.707031 C 668.375 582.601562 664.492188 586.800781 659.042969 586.800781 C 653.59375 586.800781 649.707031 582.601562 649.707031 576.707031 L 649.707031 558.753906 L 646.226562 558.753906 L 646.226562 576.707031 C 646.226562 584.480469 651.539062 589.96875 659.042969 589.96875 C 666.542969 589.96875 671.859375 584.480469 671.859375 576.707031 L 671.859375 558.753906 L 668.375 558.753906 Z M 668.375 576.707031 "/>
<path d="M 682.8125 562.058594 L 693.128906 562.058594 L 693.128906 589.433594 L 696.613281 589.433594 L 696.613281 562.058594 L 706.925781 562.058594 L 706.925781 558.757812 L 682.8125 558.757812 Z M 682.8125 562.058594 "/>
<path d="M 472.570312 623.097656 C 467.347656 621.847656 464.3125 620.734375 464.3125 617.5625 C 464.3125 614.75 467.078125 612.246094 470.875 612.246094 C 474.089844 612.246094 477.125 613.71875 479.671875 616.175781 L 481.816406 613.453125 C 479 610.863281 475.609375 609.078125 471.054688 609.078125 C 465.15625 609.078125 460.78125 612.917969 460.78125 617.828125 C 460.78125 623.144531 464.667969 625.0625 470.828125 626.492188 C 476.191406 627.742188 479.089844 629.039062 479.089844 632.296875 C 479.089844 635.066406 476.679688 637.660156 471.945312 637.660156 C 467.660156 637.660156 464.488281 635.828125 461.898438 633.238281 L 459.710938 635.960938 C 462.792969 638.996094 466.765625 640.828125 471.8125 640.828125 C 478.957031 640.828125 482.621094 636.851562 482.621094 631.984375 C 482.621094 626.582031 478.421875 624.484375 472.570312 623.097656 "/>
<path d="M 494.335938 640.335938 L 516.351562 640.335938 L 516.351562 637.03125 L 497.859375 637.03125 L 497.859375 626.359375 L 514.519531 626.359375 L 514.519531 623.054688 L 497.859375 623.054688 L 497.859375 612.960938 L 516.351562 612.960938 L 516.351562 609.65625 L 494.335938 609.65625 Z M 494.335938 640.335938 "/>
<path d="M 528.109375 640.335938 L 550.125 640.335938 L 550.125 637.03125 L 531.632812 637.03125 L 531.632812 626.359375 L 548.292969 626.359375 L 548.292969 623.054688 L 531.632812 623.054688 L 531.632812 612.960938 L 550.125 612.960938 L 550.125 609.65625 L 528.109375 609.65625 Z M 528.109375 640.335938 "/>
<path d="M 576.261719 637.167969 L 566.035156 637.167969 L 566.035156 625.824219 L 576.261719 625.824219 C 580.058594 625.824219 582.738281 628.191406 582.738281 631.496094 C 582.738281 634.800781 580.058594 637.167969 576.261719 637.167969 M 566.035156 612.828125 L 575.726562 612.828125 C 579.117188 612.828125 581.53125 614.882812 581.53125 617.742188 C 581.53125 620.597656 579.117188 622.652344 575.726562 622.652344 L 566.035156 622.652344 Z M 580.679688 624.035156 C 583.453125 622.429688 585.058594 620.554688 585.058594 617.292969 C 585.058594 612.828125 581.574219 609.65625 576.617188 609.65625 L 562.550781 609.65625 L 562.550781 640.335938 L 577.15625 640.335938 C 582.46875 640.335938 586.261719 636.855469 586.261719 631.941406 C 586.261719 628.59375 584.210938 625.824219 580.679688 624.035156 "/>
<path d="M 606.597656 606.085938 C 607.710938 606.085938 608.652344 605.144531 608.652344 604.03125 C 608.652344 602.960938 607.710938 601.976562 606.597656 601.976562 C 605.433594 601.976562 604.542969 602.960938 604.542969 604.03125 C 604.542969 605.144531 605.433594 606.085938 606.597656 606.085938 "/>
<path d="M 617.226562 604.03125 C 617.226562 602.957031 616.285156 601.976562 615.171875 601.976562 C 614.007812 601.976562 613.117188 602.957031 613.117188 604.03125 C 613.117188 605.148438 614.007812 606.085938 615.171875 606.085938 C 616.285156 606.085938 617.226562 605.148438 617.226562 604.03125 "/>
<path d="M 620.21875 627.609375 C 620.21875 633.503906 616.332031 637.703125 610.886719 637.703125 C 605.433594 637.703125 601.550781 633.503906 601.550781 627.609375 L 601.550781 609.65625 L 598.066406 609.65625 L 598.066406 627.609375 C 598.066406 635.378906 603.382812 640.871094 610.886719 640.871094 C 618.386719 640.871094 623.699219 635.378906 623.699219 627.609375 L 623.699219 609.65625 L 620.21875 609.65625 Z M 620.21875 627.609375 "/>
<path d="M 657.746094 623.054688 L 639.65625 623.054688 L 639.65625 609.65625 L 636.175781 609.65625 L 636.175781 640.335938 L 639.65625 640.335938 L 639.65625 626.359375 L 657.746094 626.359375 L 657.746094 640.335938 L 661.226562 640.335938 L 661.226562 609.65625 L 657.746094 609.65625 Z M 657.746094 623.054688 "/>
<path d="M 696.5625 634.621094 L 677.539062 609.65625 L 674.054688 609.65625 L 674.054688 640.335938 L 677.539062 640.335938 L 677.539062 615.375 L 696.5625 640.335938 L 700.046875 640.335938 L 700.046875 609.65625 L 696.5625 609.65625 Z M 696.5625 634.621094 "/>
<path d="M 735.25 612.960938 L 735.25 609.65625 L 713.234375 609.65625 L 713.234375 640.335938 L 735.25 640.335938 L 735.25 637.03125 L 716.761719 637.03125 L 716.761719 626.359375 L 733.417969 626.359375 L 733.417969 623.054688 L 716.761719 623.054688 L 716.761719 612.960938 Z M 735.25 612.960938 "/>
</g>
</svg>
